<svg xmlns="http://www.w3.org/2000/svg" version="1.1" xmlns:xlink="http://www.w3.org/1999/xlink" xmlns:svgjs="http://svgjs.dev/svgjs" width="1640" height="100" preserveAspectRatio="none" viewBox="0 0 1440 560"><g mask="url(&quot;#SvgjsMask1013&quot;)" fill="none"><path d="M1488 560L0 560 L0 298.09Q37.44 263.53, 72 300.97Q147.06 256.04, 192 331.1Q233.49 300.59, 264 342.07Q293.19 251.26, 384 280.45Q449.25 225.69, 504 290.94Q555.04 269.98, 576 321.01Q641.98 266.99, 696 332.97Q744.06 309.04, 768 357.1Q812.87 329.97, 840 374.84Q881.97 296.81, 960 338.78Q983 289.78, 1032 312.78Q1075.17 283.95, 1104 327.13Q1117.91 269.04, 1176 282.95Q1244.38 231.34, 1296 299.72Q1343.39 275.12, 1368 322.51Q1441.02 275.53, 1488 348.55z" fill="rgba(237, 158, 214, 1)"></path><path d="M1464 560L0 560 L0 359.63Q67.76 355.39, 72 423.16Q90.98 370.14, 144 389.13Q215.24 340.37, 264 411.6Q317.62 393.22, 336 446.83Q340.06 378.88, 408 382.94Q455.5 310.44, 528 357.94Q591.45 349.39, 600 412.84Q646.55 339.39, 720 385.95Q746.08 340.02, 792 366.1Q847.55 349.65, 864 405.2Q892.9 362.1, 936 391Q996.37 379.37, 1008 439.74Q1008.77 368.51, 1080 369.28Q1108 325.28, 1152 353.28Q1205.72 335, 1224 388.73Q1295.21 339.95, 1344 411.16Q1415.01 362.17, 1464 433.17z" fill="rgba(255, 209, 227, 1)"></path><path d="M1560 560L0 560 L0 469.06Q17.94 415, 72 432.95Q120.81 409.76, 144 458.58Q173.52 416.1, 216 445.61Q291.7 401.31, 336 477.02Q389.4 410.42, 456 463.82Q486.3 422.12, 528 452.41Q582.17 434.58, 600 488.75Q670.01 438.76, 720 508.77Q741.26 410.03, 840 431.29Q894.83 366.12, 960 420.94Q1025.86 414.8, 1032 480.66Q1082.44 459.1, 1104 509.54Q1120.51 454.05, 1176 470.55Q1187.53 410.08, 1248 421.6Q1323.61 377.21, 1368 452.81Q1435.61 448.41, 1440 516.02Q1477.96 433.98, 1560 471.94z" fill="rgba(250, 231, 243, 1)"></path><path d="M1488 560L0 560 L0 553.61Q30.53 512.14, 72 542.68Q143.51 494.19, 192 565.71Q207.46 509.17, 264 524.64Q310.2 450.84, 384 497.04Q479.17 472.21, 504 567.38Q545.87 489.25, 624 531.11Q690.86 477.97, 744 544.82Q810.7 491.52, 864 558.21Q898.77 472.98, 984 507.75Q1037.59 489.34, 1056 542.92Q1108.69 475.62, 1176 528.31Q1256.02 488.33, 1296 568.34Q1361.7 514.05, 1416 579.75Q1431.76 523.51, 1488 539.27z" fill="white"></path></g><defs><mask id="SvgjsMask1013"><rect width="1440" height="560" fill="#ffffff"></rect></mask></defs></svg>